<svg xmlns="http://www.w3.org/2000/svg" xmlns:xlink="http://www.w3.org/1999/xlink" width="482" zoomAndPan="magnify" viewBox="0 0 361.5 358.49999" height="478" preserveAspectRatio="xMidYMid meet" version="1.2"><defs><clipPath id="f2a8d33486"><path d="M 270.765625 194.527344 L 292.4375 194.527344 L 292.4375 203.21875 L 270.765625 203.21875 Z M 270.765625 194.527344 "/></clipPath><clipPath id="32070c2473"><path d="M 272.863281 179.296875 L 289 179.296875 L 289 193.402344 L 272.863281 193.402344 Z M 272.863281 179.296875 "/></clipPath><clipPath id="ae1e728a1c"><path d="M 280.925781 179.296875 L 288.984375 193.402344 L 272.863281 193.402344 Z M 280.925781 179.296875 "/></clipPath><clipPath id="dde815932d"><path d="M 72.875 129.550781 L 271 129.550781 L 271 302.699219 L 72.875 302.699219 Z M 72.875 129.550781 "/></clipPath><clipPath id="a9721fa758"><path d="M 171.820312 129.550781 L 270.765625 302.699219 L 72.875 302.699219 Z M 171.820312 129.550781 "/></clipPath></defs><g id="86b9aa33fa"><g clip-rule="nonzero" clip-path="url(#f2a8d33486)"><path style=" stroke:none;fill-rule:nonzero;fill:#ffffff;fill-opacity:1;" d="M 270.765625 194.527344 L 292.425781 194.527344 L 292.425781 203.21875 L 270.765625 203.21875 Z M 270.765625 194.527344 "/></g><g clip-rule="nonzero" clip-path="url(#32070c2473)"><g clip-rule="nonzero" clip-path="url(#ae1e728a1c)"><path style=" stroke:none;fill-rule:nonzero;fill:#ffffff;fill-opacity:1;" d="M 272.863281 179.296875 L 289.007812 179.296875 L 289.007812 193.402344 L 272.863281 193.402344 Z M 272.863281 179.296875 "/></g></g><g style="fill:#949494;fill-opacity:1;"><g transform="translate(50.493878, 264.662784)"><path style="stroke:none" d="M 117.925781 6.800781 C 102.480469 6.800781 88.1875 4.105469 75.054688 -1.285156 C 61.917969 -6.675781 50.492188 -14.183594 40.773438 -23.800781 C 31.050781 -33.429688 23.539062 -44.671875 18.234375 -57.53125 C 12.9375 -70.382812 10.289062 -84.4375 10.289062 -99.695312 C 10.289062 -114.761719 12.9375 -128.765625 18.234375 -141.710938 C 23.535156 -154.667969 31.046875 -165.960938 40.773438 -175.589844 C 50.492188 -185.210938 61.917969 -192.714844 75.054688 -198.105469 C 88.1875 -203.5 102.480469 -206.195312 117.925781 -206.195312 C 133.5625 -206.195312 147.949219 -203.5 161.082031 -198.105469 C 174.226562 -192.714844 185.609375 -185.203125 195.234375 -175.578125 C 204.851562 -165.960938 212.359375 -154.726562 217.75 -141.882812 C 223.148438 -129.023438 225.847656 -114.960938 225.847656 -99.695312 C 225.847656 -84.433594 223.152344 -70.328125 217.753906 -57.378906 C 212.359375 -44.425781 204.847656 -33.1875 195.222656 -23.660156 C 185.597656 -14.136719 174.21875 -6.675781 161.082031 -1.285156 C 147.949219 4.105469 133.5625 6.800781 117.925781 6.800781 Z M 117.925781 0.0351562 C 132.675781 0.0351562 146.203125 -2.492188 158.515625 -7.542969 C 170.824219 -12.597656 181.472656 -19.570312 190.460938 -28.46875 C 199.445312 -37.359375 206.460938 -47.863281 211.511719 -59.980469 C 216.558594 -72.097656 219.082031 -85.335938 219.082031 -99.695312 C 219.082031 -114.054688 216.558594 -127.242188 211.511719 -139.261719 C 206.460938 -151.292969 199.441406 -161.804688 190.449219 -170.796875 C 181.464844 -179.78125 170.820312 -186.796875 158.515625 -191.847656 C 146.203125 -196.902344 132.675781 -199.429688 117.925781 -199.429688 C 103.371094 -199.429688 89.933594 -196.902344 77.625 -191.847656 C 65.3125 -186.796875 54.617188 -179.773438 45.535156 -170.785156 C 36.460938 -161.800781 29.449219 -151.257812 24.496094 -139.148438 C 19.535156 -127.027344 17.054688 -113.875 17.054688 -99.695312 C 17.054688 -85.332031 19.535156 -72.136719 24.492188 -60.109375 C 29.445312 -48.09375 36.457031 -37.59375 45.535156 -28.609375 C 54.617188 -19.617188 65.3125 -12.597656 77.625 -7.542969 C 89.933594 -2.492188 103.371094 0.0351562 117.925781 0.0351562 Z M 117.925781 -24.460938 C 132.515625 -24.460938 145.484375 -27.730469 156.828125 -34.265625 C 168.171875 -40.796875 177.109375 -49.734375 183.644531 -61.078125 C 190.179688 -72.425781 193.445312 -85.296875 193.445312 -99.695312 C 193.445312 -114.09375 190.179688 -126.96875 183.644531 -138.3125 C 177.109375 -149.65625 168.171875 -158.59375 156.828125 -165.128906 C 145.484375 -171.664062 132.515625 -174.933594 117.925781 -174.933594 C 103.535156 -174.933594 90.667969 -171.621094 79.328125 -164.996094 C 67.976562 -158.367188 59.03125 -149.378906 52.496094 -138.03125 C 45.960938 -126.683594 42.691406 -113.90625 42.691406 -99.695312 C 42.691406 -85.300781 45.957031 -72.480469 52.488281 -61.230469 C 59.027344 -49.972656 67.972656 -41.027344 79.328125 -34.398438 C 90.667969 -27.773438 103.535156 -24.460938 117.925781 -24.460938 Z M 117.925781 -17.695312 C 102.316406 -17.695312 88.3125 -21.316406 75.914062 -28.554688 C 63.53125 -35.785156 53.773438 -45.546875 46.636719 -57.835938 C 39.496094 -70.132812 35.925781 -84.085938 35.925781 -99.695312 C 35.925781 -115.113281 39.496094 -129.015625 46.632812 -141.40625 C 53.769531 -153.792969 63.527344 -163.605469 75.914062 -170.839844 C 88.3125 -178.078125 102.316406 -181.695312 117.925781 -181.695312 C 133.722656 -181.695312 147.816406 -178.128906 160.207031 -170.992188 C 172.601562 -163.851562 182.367188 -154.085938 189.507812 -141.691406 C 196.644531 -129.300781 200.210938 -115.300781 200.210938 -99.695312 C 200.210938 -84.089844 196.644531 -70.09375 189.507812 -57.703125 C 182.367188 -45.308594 172.601562 -35.542969 160.207031 -28.402344 C 147.816406 -21.265625 133.722656 -17.695312 117.925781 -17.695312 Z M 117.925781 -17.695312 "/></g></g><g style="fill:#949494;fill-opacity:1;"><g transform="translate(286.635704, 264.662784)"><path style="stroke:none" d=""/></g></g><g clip-rule="nonzero" clip-path="url(#dde815932d)"><g clip-rule="nonzero" clip-path="url(#a9721fa758)"><path style=" stroke:none;fill-rule:nonzero;fill:#ffffff;fill-opacity:1;" d="M 72.875 129.550781 L 271.054688 129.550781 L 271.054688 302.699219 L 72.875 302.699219 Z M 72.875 129.550781 "/></g></g><path style=" stroke:none;fill-rule:nonzero;fill:#949494;fill-opacity:1;" d="M 223.695312 259.171875 L 171.96875 174.375 L 120.246094 259.171875 Z M 173.492188 170.3125 L 228.195312 259.996094 L 226.738281 260.886719 L 228.199219 259.992188 C 228.691406 260.800781 228.433594 261.855469 227.628906 262.347656 C 227.34375 262.519531 227.027344 262.601562 226.714844 262.597656 L 117.203125 262.597656 C 116.257812 262.597656 115.488281 261.832031 115.488281 260.886719 C 115.488281 260.515625 115.609375 260.171875 115.808594 259.894531 L 170.511719 170.207031 L 170.507812 170.203125 C 171 169.398438 172.054688 169.140625 172.859375 169.632812 C 173.140625 169.804688 173.351562 170.039062 173.492188 170.3125 "/><path style="fill:none;stroke-width:10;stroke-linecap:round;stroke-linejoin:miter;stroke:#949494;stroke-opacity:1;stroke-miterlimit:4;" d="M 4.999314 4.998381 L 31.901553 4.998274 " transform="matrix(0.374478,-0.648614,0.648614,0.374478,98.987409,243.952876)"/><path style="fill:none;stroke-width:10;stroke-linecap:round;stroke-linejoin:miter;stroke:#949494;stroke-opacity:1;stroke-miterlimit:4;" d="M 5.001007 4.99859 L 34.789172 4.996668 " transform="matrix(-0.374478,-0.648614,0.648614,-0.374478,238.771233,245.826523)"/></g></svg>