<?xml version="1.0" standalone="no"?>
<!DOCTYPE svg PUBLIC "-//W3C//DTD SVG 20010904//EN"
 "http://www.w3.org/TR/2001/REC-SVG-20010904/DTD/svg10.dtd">
<svg version="1.0" xmlns="http://www.w3.org/2000/svg"
 width="32.000000pt" height="32.000000pt" viewBox="0 0 32.000000 32.000000"
 preserveAspectRatio="xMidYMid meet">
<metadata>
Created by potrace 1.10, written by Peter Selinger 2001-2011
</metadata>
<g transform="translate(0.000000,32.000000) scale(0.100000,-0.100000)"
fill="#25b01c" stroke="none">
<path d="M96 295 c-85 -44 -109 -163 -48 -233 l19 -22 11 24 c8 18 7 28 -3 43
-17 22 -19 73 -4 107 15 33 71 59 109 51 47 -10 80 -51 80 -99 0 -23 -7 -51
-15 -62 -12 -18 -12 -24 -1 -39 12 -17 14 -16 34 5 25 27 37 78 28 121 -18 93
-128 147 -210 104z"/>
<path d="M128 91 c-16 -27 -28 -52 -28 -55 0 -3 29 -6 65 -6 l65 0 -30 52
c-16 29 -33 54 -37 55 -5 2 -20 -19 -35 -46z"/>
</g>
</svg>
